<?xml version="1.0" encoding="utf-8"?>
<!-- Generator: Adobe Illustrator 25.3.0, SVG Export Plug-In . SVG Version: 6.00 Build 0)  -->
<svg version="1.1" id="Layer_1" xmlns="http://www.w3.org/2000/svg" xmlns:xlink="http://www.w3.org/1999/xlink" x="0px" y="0px"
	 viewBox="0 0 36.7 37" style="enable-background:new 0 0 36.7 37;" xml:space="preserve">
<style type="text/css">
	.st0{fill:#C4C4C4;}
</style>
<path class="st0" d="M31.4,5.4C28,1.9,23.3,0,18.5,0C8.3,0,0.1,8.3,0.2,18.4c0,3.2,0.9,6.3,2.4,9.1L0,37l9.7-2.5
	c2.7,1.5,5.7,2.2,8.7,2.2l0,0c10.1,0,18.3-8.3,18.3-18.4C36.7,13.4,34.8,8.8,31.4,5.4z M18.5,33.6L18.5,33.6c-2.7,0-5.4-0.7-7.7-2.1
	l-0.6-0.3l-5.8,1.5L5.9,27l-0.4-0.6C1.1,19.3,3.2,9.9,10.4,5.5s16.5-2.3,20.9,4.9s2.3,16.5-4.9,20.9C24.1,32.8,21.3,33.6,18.5,33.6z
	 M27.3,22.5L26.2,22c0,0-1.6-0.7-2.6-1.2c-0.1,0-0.2-0.1-0.3-0.1c-0.3,0-0.5,0.1-0.7,0.2l0,0c0,0-0.1,0.1-1.5,1.7
	c-0.1,0.2-0.3,0.3-0.5,0.3h-0.1c-0.1,0-0.3-0.1-0.4-0.2l-0.5-0.2l0,0c-1.1-0.5-2.1-1.1-2.9-1.9c-0.2-0.2-0.5-0.4-0.7-0.6
	c-0.7-0.7-1.4-1.5-1.9-2.4L14,17.4c-0.1-0.1-0.1-0.2-0.2-0.4c0-0.2,0-0.4,0.1-0.5c0,0,0.4-0.5,0.7-0.8c0.2-0.2,0.3-0.5,0.5-0.7
	c0.2-0.3,0.3-0.7,0.2-1c-0.1-0.5-1.3-3.2-1.6-3.8c-0.2-0.3-0.4-0.4-0.7-0.5h-0.3c-0.2,0-0.5,0-0.8,0c-0.2,0-0.4,0.1-0.6,0.1
	l-0.1,0.1c-0.2,0.1-0.4,0.3-0.6,0.4c-0.2,0.2-0.3,0.4-0.5,0.6C9.4,11.8,9,12.9,9,14l0,0c0,0.8,0.2,1.6,0.5,2.3l0.1,0.3
	c0.9,1.9,2.1,3.6,3.7,5.1l0.4,0.4c0.3,0.3,0.6,0.5,0.8,0.8c2.1,1.8,4.5,3.1,7.2,3.8c0.3,0.1,0.7,0.1,1,0.2l0,0c0.3,0,0.7,0,1,0
	c0.5,0,1.1-0.2,1.5-0.4c0.3-0.2,0.5-0.2,0.7-0.4l0.2-0.2c0.2-0.2,0.4-0.3,0.6-0.5s0.4-0.4,0.5-0.6c0.2-0.4,0.3-0.9,0.4-1.4
	c0-0.2,0-0.5,0-0.7C27.6,22.7,27.5,22.6,27.3,22.5z"/>
</svg>
